ffmpeg started on 2025-06-27 at 10:10:28
Report written to "D:\Convert\FFMetrics\reports\psnr_report-6.txt"
Log level: 32
Command line:
ffmpeg -hide_banner -nostdin -i "G:\\\xc0\xed\xe8\xec\xe5\\[\xd2\xee\xef-4]\\\xd2\xee\xea\xe8\xe9\xf1\xea\xe8\xe9 \xc3\xf3\xeb\xfc\\\xd2\xc2-4\\Tokyo_Ghoul_Re_[06]_[AniLibria_TV]_[HDTVRip_720p]_HEVC.mkv" -i "G:\\\xc0\xed\xe8\xec\xe5\\[\xd2\xee\xef-4]\\\xd2\xee\xea\xe8\xe9\xf1\xea\xe8\xe9 \xc3\xf3\xeb\xfc\\\xd2\xc2-4\\Tokyo_Ghoul_Re_[06]_[AniLibria_TV]_[HDTVRip_720p].mkv" -lavfi "[0:v]settb=AVTB,setpts=PTS-STARTPTS,format=pix_fmts=yuv420p10,fps=24000/1001,scale=1280:720:flags=bicubic[main];[1:v]settb=AVTB,setpts=PTS-STARTPTS,format=pix_fmts=yuv420p,fps=24000/1001,scale=1280:720:flags=bicubic[ref];[main][ref]psnr=eof_action=endall:stats_file='D\\:/Convert/FFMetrics/logs/psnr_logfile-6.txt'" -f null -
Input #0, matroska,webm, from 'G:\Аниме\[Топ-4]\Токийский Гуль\ТВ-4\Tokyo_Ghoul_Re_[06]_[AniLibria_TV]_[HDTVRip_720p]_HEVC.mkv':
  Metadata:
    ENCODER         : Lavf61.7.100
  Duration: 00:24:29.97, start: -0.021000, bitrate: 802 kb/s
  Stream #0:0(jpn): Video: hevc (Main 10), yuv420p10le(tv, bt709, progressive), 1280x720 [SAR 1:1 DAR 16:9], 23.98 fps, 23.98 tbr, 1k tbn (default)
      Metadata:
        ENCODER         : Lavc61.19.100 libx265
        BPS             : 534070
        DURATION        : 00:24:29.968708333
        NUMBER_OF_FRAMES: 35244
        NUMBER_OF_BYTES : 98133231
        _STATISTICS_WRITING_APP: mkvpropedit v66.0.0 ('Josie') 64-bit
        _STATISTICS_WRITING_DATE_UTC: 2025-06-26 13:58:52
        _STATISTICS_TAGS: BPS DURATION NUMBER_OF_FRAMES NUMBER_OF_BYTES
  Stream #0:1(rus): Audio: aac (LC), 48000 Hz, stereo, fltp (default) (forced)
      Metadata:
        title           : Lupin, Silv, December & MyAska
        ENCODER         : Lavc61.19.100 aac
        BPS             : 193833
        DURATION        : 00:24:29.930000000
        NUMBER_OF_FRAMES: 68904
        NUMBER_OF_BYTES : 35615241
        _STATISTICS_WRITING_APP: mkvpropedit v66.0.0 ('Josie') 64-bit
        _STATISTICS_WRITING_DATE_UTC: 2025-06-26 13:58:52
        _STATISTICS_TAGS: BPS DURATION NUMBER_OF_FRAMES NUMBER_OF_BYTES
  Stream #0:2(rus): Subtitle: ass (ssa) (default) (forced)
      Metadata:
        title           : Надписи
        BPS             : 65997
        DURATION        : 00:23:05.790000000
        NUMBER_OF_FRAMES: 38624
        NUMBER_OF_BYTES : 11432341
        _STATISTICS_WRITING_APP: mkvpropedit v66.0.0 ('Josie') 64-bit
        _STATISTICS_WRITING_DATE_UTC: 2025-06-26 13:58:52
        _STATISTICS_TAGS: BPS DURATION NUMBER_OF_FRAMES NUMBER_OF_BYTES
  Stream #0:3(rus): Subtitle: ass (ssa)
      Metadata:
        title           : Субтитры
        BPS             : 85
        DURATION        : 00:24:06.670000000
        NUMBER_OF_FRAMES: 243
        NUMBER_OF_BYTES : 15542
        _STATISTICS_WRITING_APP: mkvpropedit v66.0.0 ('Josie') 64-bit
        _STATISTICS_WRITING_DATE_UTC: 2025-06-26 13:58:52
        _STATISTICS_TAGS: BPS DURATION NUMBER_OF_FRAMES NUMBER_OF_BYTES
Input #1, matroska,webm, from 'G:\Аниме\[Топ-4]\Токийский Гуль\ТВ-4\Tokyo_Ghoul_Re_[06]_[AniLibria_TV]_[HDTVRip_720p].mkv':
  Metadata:
    encoder         : libebml v1.4.2 + libmatroska v1.6.4
    creation_time   : 2024-12-27T09:45:40.000000Z
  Duration: 00:24:29.97, start: 0.000000, bitrate: 2290 kb/s
  Stream #1:0(jpn): Video: h264 (Main), yuv420p(tv, bt709, progressive), 1280x720, SAR 1:1 DAR 16:9, 23.98 fps, 23.98 tbr, 1k tbn (default)
      Metadata:
        BPS             : 2014366
        DURATION        : 00:24:29.969000000
        NUMBER_OF_FRAMES: 35244
        NUMBER_OF_BYTES : 370132089
        _STATISTICS_WRITING_APP: mkvmerge v66.0.0 ('Josie') 64-bit
        _STATISTICS_WRITING_DATE_UTC: 2024-12-27 09:45:40
        _STATISTICS_TAGS: BPS DURATION NUMBER_OF_FRAMES NUMBER_OF_BYTES
  Stream #1:1(rus): Audio: aac (LC), 48000 Hz, stereo, fltp (default) (forced)
      Metadata:
        title           : Lupin, Silv, December & MyAska
        BPS             : 192093
        DURATION        : 00:24:29.930000000
        NUMBER_OF_FRAMES: 68903
        NUMBER_OF_BYTES : 35295461
        _STATISTICS_WRITING_APP: mkvmerge v66.0.0 ('Josie') 64-bit
        _STATISTICS_WRITING_DATE_UTC: 2024-12-27 09:45:40
        _STATISTICS_TAGS: BPS DURATION NUMBER_OF_FRAMES NUMBER_OF_BYTES
  Stream #1:2(rus): Subtitle: ass (ssa) (default) (forced)
      Metadata:
        title           : Надписи
        BPS             : 65997
        DURATION        : 00:23:05.790000000
        NUMBER_OF_FRAMES: 38624
        NUMBER_OF_BYTES : 11432341
        _STATISTICS_WRITING_APP: mkvmerge v66.0.0 ('Josie') 64-bit
        _STATISTICS_WRITING_DATE_UTC: 2024-12-27 09:45:40
        _STATISTICS_TAGS: BPS DURATION NUMBER_OF_FRAMES NUMBER_OF_BYTES
  Stream #1:3(rus): Subtitle: ass (ssa)
      Metadata:
        title           : Субтитры
        BPS             : 85
        DURATION        : 00:24:06.670000000
        NUMBER_OF_FRAMES: 243
        NUMBER_OF_BYTES : 15542
        _STATISTICS_WRITING_APP: mkvmerge v66.0.0 ('Josie') 64-bit
        _STATISTICS_WRITING_DATE_UTC: 2024-12-27 09:45:40
        _STATISTICS_TAGS: BPS DURATION NUMBER_OF_FRAMES NUMBER_OF_BYTES
  Stream #1:4: Attachment: ttf
      Metadata:
        filename        : Aero_Matics_Display_Regular.ttf
        mimetype        : application/x-truetype-font
  Stream #1:5: Attachment: ttf
      Metadata:
        filename        : BenchNine-Regular.ttf
        mimetype        : application/x-truetype-font
  Stream #1:6: Attachment: ttf
      Metadata:
        filename        : OpenSanA.ttf
        mimetype        : application/x-truetype-font
  Stream #1:7: Attachment: ttf
      Metadata:
        filename        : REDOCTOB.otf
        mimetype        : application/x-truetype-font
  Stream #1:8: Attachment: ttf
      Metadata:
        filename        : simsun_0.ttc
        mimetype        : application/x-truetype-font
  Stream #1:9: Attachment: ttf
      Metadata:
        filename        : Snowstorm.ttf
        mimetype        : application/x-truetype-font
  Stream #1:10: Attachment: ttf
      Metadata:
        filename        : TEMPSITC.TTF
        mimetype        : application/x-truetype-font
  Stream #1:11: Attachment: otf
      Metadata:
        filename        : TrajanPro3-Bold.otf
        mimetype        : application/vnd.ms-opentype
  Stream #1:12: Attachment: otf
      Metadata:
        filename        : TrajanPro3-Regular.otf
        mimetype        : application/vnd.ms-opentype
  Stream #1:13: Attachment: ttf
      Metadata:
        filename        : v_HolyMackerelli_v1.9.ttf
        mimetype        : application/x-truetype-font
  Stream #1:14: Attachment: ttf
      Metadata:
        filename        : XENI.TTF
        mimetype        : application/x-truetype-font
  Stream #1:15: Attachment: ttf
      Metadata:
        filename        : Aero Matics Display Bold Italic.ttf
        mimetype        : application/x-truetype-font
  Stream #1:16: Attachment: ttf
      Metadata:
        filename        : Aero Matics Display Bold.ttf
        mimetype        : application/x-truetype-font
  Stream #1:17: Attachment: ttf
      Metadata:
        filename        : Aero Matics Display Italic.ttf
        mimetype        : application/x-truetype-font
  Stream #1:18: Attachment: ttf
      Metadata:
        filename        : Aero Matics Display Light Italic.ttf
        mimetype        : application/x-truetype-font
  Stream #1:19: Attachment: ttf
      Metadata:
        filename        : Aero Matics Display Light.ttf
        mimetype        : application/x-truetype-font
Stream mapping:
  Stream #0:0 (hevc) -> settb:default
  Stream #1:0 (h264) -> settb:default
  psnr:default -> Stream #0:0 (wrapped_avframe)
  Stream #0:1 -> #0:1 (aac (native) -> pcm_s16le (native))
Output #0, null, to 'pipe:':
  Metadata:
    encoder         : Lavf61.7.100
  Stream #0:0: Video: wrapped_avframe, yuv420p10le(tv, bt709, progressive), 1280x720 [SAR 1:1 DAR 16:9], q=2-31, 200 kb/s, 23.98 fps, 23.98 tbn
      Metadata:
        encoder         : Lavc61.19.100 wrapped_avframe
  Stream #0:1(rus): Audio: pcm_s16le, 48000 Hz, stereo, s16, 1536 kb/s (default) (forced)
      Metadata:
        title           : Lupin, Silv, December & MyAska
        _STATISTICS_TAGS: BPS DURATION NUMBER_OF_FRAMES NUMBER_OF_BYTES
        BPS             : 193833
        DURATION        : 00:24:29.930000000
        NUMBER_OF_FRAMES: 68904
        NUMBER_OF_BYTES : 35615241
        _STATISTICS_WRITING_APP: mkvpropedit v66.0.0 ('Josie') 64-bit
        _STATISTICS_WRITING_DATE_UTC: 2025-06-26 13:58:52
        encoder         : Lavc61.19.100 pcm_s16le
frame=  353 fps=0.0 q=-0.0 size=N/A time=00:00:14.72 bitrate=N/A speed=29.2x    frame=  775 fps=762 q=-0.0 size=N/A time=00:00:32.32 bitrate=N/A speed=31.8x    frame= 1085 fps=707 q=-0.0 size=N/A time=00:00:45.25 bitrate=N/A speed=29.5x    frame= 1526 fps=742 q=-0.0 size=N/A time=00:01:03.64 bitrate=N/A speed=30.9x    frame= 1888 fps=734 q=-0.0 size=N/A time=00:01:18.74 bitrate=N/A speed=30.6x    frame= 2264 fps=733 q=-0.0 size=N/A time=00:01:34.42 bitrate=N/A speed=30.6x    frame= 2613 fps=725 q=-0.0 size=N/A time=00:01:48.98 bitrate=N/A speed=30.2x    frame= 2918 fps=708 q=-0.0 size=N/A time=00:02:01.70 bitrate=N/A speed=29.5x    frame= 3217 fps=694 q=-0.0 size=N/A time=00:02:14.17 bitrate=N/A speed=  29x    frame= 3545 fps=689 q=-0.0 size=N/A time=00:02:27.85 bitrate=N/A speed=28.7x    frame= 3831 fps=676 q=-0.0 size=N/A time=00:02:39.78 bitrate=N/A speed=28.2x    frame= 4399 fps=712 q=-0.0 size=N/A time=00:03:03.47 bitrate=N/A speed=29.7x    frame= 4797 fps=716 q=-0.0 size=N/A time=00:03:20.07 bitrate=N/A speed=29.9x    frame= 5251 fps=728 q=-0.0 size=N/A time=00:03:39.01 bitrate=N/A speed=30.4x    frame= 5543 fps=717 q=-0.0 size=N/A time=00:03:51.18 bitrate=N/A speed=29.9x    frame= 5997 fps=727 q=-0.0 size=N/A time=00:04:10.12 bitrate=N/A speed=30.3x    frame= 6501 fps=743 q=-0.0 size=N/A time=00:04:31.14 bitrate=N/A speed=  31x    frame= 6917 fps=745 q=-0.0 size=N/A time=00:04:48.49 bitrate=N/A speed=31.1x    frame= 7351 fps=751 q=-0.0 size=N/A time=00:05:06.59 bitrate=N/A speed=31.3x    frame= 7809 fps=758 q=-0.0 size=N/A time=00:05:25.70 bitrate=N/A speed=31.6x    frame= 8033 fps=742 q=-0.0 size=N/A time=00:05:35.04 bitrate=N/A speed=  31x    frame= 8397 fps=741 q=-0.0 size=N/A time=00:05:50.22 bitrate=N/A speed=30.9x    frame= 8775 fps=740 q=-0.0 size=N/A time=00:06:05.99 bitrate=N/A speed=30.9x    frame= 9001 fps=728 q=-0.0 size=N/A time=00:06:15.41 bitrate=N/A speed=30.4x    frame= 9468 fps=735 q=-0.0 size=N/A time=00:06:34.89 bitrate=N/A speed=30.7x    frame= 9975 fps=744 q=-0.0 size=N/A time=00:06:56.04 bitrate=N/A speed=  31x    frame=10505 fps=755 q=-0.0 size=N/A time=00:07:18.14 bitrate=N/A speed=31.5x    frame=11008 fps=762 q=-0.0 size=N/A time=00:07:39.12 bitrate=N/A speed=31.8x    frame=11525 fps=770 q=-0.0 size=N/A time=00:08:00.68 bitrate=N/A speed=32.1x    frame=12105 fps=782 q=-0.0 size=N/A time=00:08:24.87 bitrate=N/A speed=32.6x    frame=12697 fps=794 q=-0.0 size=N/A time=00:08:49.57 bitrate=N/A speed=33.1x    frame=13214 fps=800 q=-0.0 size=N/A time=00:09:11.13 bitrate=N/A speed=33.4x    frame=13659 fps=802 q=-0.0 size=N/A time=00:09:29.69 bitrate=N/A speed=33.4x    frame=13922 fps=793 q=-0.0 size=N/A time=00:09:40.66 bitrate=N/A speed=33.1x    frame=14315 fps=792 q=-0.0 size=N/A time=00:09:57.05 bitrate=N/A speed=33.1x    frame=14751 fps=794 q=-0.0 size=N/A time=00:10:15.23 bitrate=N/A speed=33.1x    frame=14878 fps=779 q=-0.0 size=N/A time=00:10:20.53 bitrate=N/A speed=32.5x    frame=15404 fps=785 q=-0.0 size=N/A time=00:10:42.47 bitrate=N/A speed=32.7x    frame=15976 fps=794 q=-0.0 size=N/A time=00:11:06.33 bitrate=N/A speed=33.1x    frame=16514 fps=800 q=-0.0 size=N/A time=00:11:28.77 bitrate=N/A speed=33.4x    frame=17090 fps=807 q=-0.0 size=N/A time=00:11:52.79 bitrate=N/A speed=33.7x    frame=17589 fps=811 q=-0.0 size=N/A time=00:12:13.60 bitrate=N/A speed=33.8x    frame=18059 fps=814 q=-0.0 size=N/A time=00:12:33.21 bitrate=N/A speed=33.9x    frame=18469 fps=813 q=-0.0 size=N/A time=00:12:50.31 bitrate=N/A speed=33.9x    frame=18866 fps=812 q=-0.0 size=N/A time=00:13:06.86 bitrate=N/A speed=33.9x    frame=19407 fps=818 q=-0.0 size=N/A time=00:13:29.43 bitrate=N/A speed=34.1x    frame=19800 fps=816 q=-0.0 size=N/A time=00:13:45.82 bitrate=N/A speed=  34x    frame=20182 fps=815 q=-0.0 size=N/A time=00:14:01.75 bitrate=N/A speed=  34x    frame=20586 fps=814 q=-0.0 size=N/A time=00:14:18.60 bitrate=N/A speed=  34x    frame=20967 fps=813 q=-0.0 size=N/A time=00:14:34.49 bitrate=N/A speed=33.9x    frame=21506 fps=817 q=-0.0 size=N/A time=00:14:56.97 bitrate=N/A speed=34.1x    frame=22013 fps=820 q=-0.0 size=N/A time=00:15:18.12 bitrate=N/A speed=34.2x    frame=22430 fps=820 q=-0.0 size=N/A time=00:15:35.51 bitrate=N/A speed=34.2x    frame=22999 fps=825 q=-0.0 size=N/A time=00:15:59.24 bitrate=N/A speed=34.4x    frame=23518 fps=829 q=-0.0 size=N/A time=00:16:20.89 bitrate=N/A speed=34.6x    frame=24063 fps=833 q=-0.0 size=N/A time=00:16:43.62 bitrate=N/A speed=34.7x    frame=24592 fps=836 q=-0.0 size=N/A time=00:17:05.69 bitrate=N/A speed=34.9x    frame=25018 fps=836 q=-0.0 size=N/A time=00:17:23.45 bitrate=N/A speed=34.9x    frame=25414 fps=835 q=-0.0 size=N/A time=00:17:39.97 bitrate=N/A speed=34.8x    frame=25867 fps=835 q=-0.0 size=N/A time=00:17:58.86 bitrate=N/A speed=34.8x    frame=26286 fps=835 q=-0.0 size=N/A time=00:18:16.34 bitrate=N/A speed=34.8x    frame=26813 fps=838 q=-0.0 size=N/A time=00:18:38.32 bitrate=N/A speed=  35x    frame=27273 fps=839 q=-0.0 size=N/A time=00:18:57.51 bitrate=N/A speed=  35x    frame=27773 fps=841 q=-0.0 size=N/A time=00:19:18.36 bitrate=N/A speed=35.1x    frame=28308 fps=844 q=-0.0 size=N/A time=00:19:40.67 bitrate=N/A speed=35.2x    frame=28800 fps=846 q=-0.0 size=N/A time=00:20:01.20 bitrate=N/A speed=35.3x    frame=29345 fps=849 q=-0.0 size=N/A time=00:20:23.93 bitrate=N/A speed=35.4x    frame=29698 fps=847 q=-0.0 size=N/A time=00:20:38.65 bitrate=N/A speed=35.3x    frame=30261 fps=850 q=-0.0 size=N/A time=00:21:02.13 bitrate=N/A speed=35.5x    frame=30832 fps=854 q=-0.0 size=N/A time=00:21:25.95 bitrate=N/A speed=35.6x    frame=31405 fps=857 q=-0.0 size=N/A time=00:21:49.85 bitrate=N/A speed=35.8x    frame=31836 fps=857 q=-0.0 size=N/A time=00:22:07.82 bitrate=N/A speed=35.7x    frame=32373 fps=859 q=-0.0 size=N/A time=00:22:30.22 bitrate=N/A speed=35.8x    frame=32729 fps=857 q=-0.0 size=N/A time=00:22:45.07 bitrate=N/A speed=35.8x    frame=33187 fps=858 q=-0.0 size=N/A time=00:23:04.17 bitrate=N/A speed=35.8x    frame=33617 fps=857 q=-0.0 size=N/A time=00:23:22.10 bitrate=N/A speed=35.8x    frame=34019 fps=856 q=-0.0 size=N/A time=00:23:38.87 bitrate=N/A speed=35.7x    frame=34445 fps=856 q=-0.0 size=N/A time=00:23:56.64 bitrate=N/A speed=35.7x    frame=35001 fps=859 q=-0.0 size=N/A time=00:24:19.83 bitrate=N/A speed=35.8x    [Parsed_psnr_10 @ 0000017b0298f1c0] PSNR y:47.454373 u:50.514588 v:50.611562 average:48.265635 min:37.549927 max:62.243219
[out#0/null @ 0000017b01c3bec0] video:15144KiB audio:275616KiB subtitle:0KiB other streams:0KiB global headers:0KiB muxing overhead: unknown
frame=35244 fps=860 q=-0.0 Lsize=N/A time=00:24:29.95 bitrate=N/A speed=35.9x    
